<svg data-depth="0.5" class="sky" width="1920px" height="1080px" viewBox="0 0 1920 1080" version="1.1" xmlns="http://www.w3.org/2000/svg" xmlns:xlink="http://www.w3.org/1999/xlink">
    <defs>
        <radialGradient cx="64.1704564%" cy="78.8102226%" fx="64.1704564%" fy="78.8102226%" r="100%" gradientTransform="translate(0.641705,0.788102),scale(0.562500,1.000000),rotate(90.000000),scale(1.000000,1.306128),translate(-0.641705,-0.788102)" id="radialGradient-1">
            <stop stop-color="#00728D" offset="0%"></stop>
            <stop stop-color="#0F2133" offset="100%"></stop>
        </radialGradient>
        <filter x="-2.7%" y="-6.7%" width="105.3%" height="113.5%" filterUnits="objectBoundingBox" id="filter-2">
            <feOffset dx="0" dy="2" in="SourceAlpha" result="shadowOffsetOuter1"></feOffset>
            <feGaussianBlur stdDeviation="12" in="shadowOffsetOuter1" result="shadowBlurOuter1"></feGaussianBlur>
            <feColorMatrix values="0 0 0 0 1   0 0 0 0 1   0 0 0 0 1  0 0 0 0.5 0" type="matrix" in="shadowBlurOuter1" result="shadowMatrixOuter1"></feColorMatrix>
            <feMerge>
                <feMergeNode in="shadowMatrixOuter1"></feMergeNode>
                <feMergeNode in="SourceGraphic"></feMergeNode>
            </feMerge>
        </filter>
    </defs>
    <g id="Page-1" stroke="none" stroke-width="1" fill="none" fill-rule="evenodd">
        <g id="HOMEPAGE-Copy-2" transform="translate(-2543.000000, -1867.000000)">
            <g id="Group" transform="translate(2543.000000, 1866.578692)">
                <rect id="Rectangle" fill="url(#radialGradient-1)" x="0" y="0.421307506" width="1920" height="1080"></rect>
                <g id="Group-110" filter="url(#filter-2)" transform="translate(21.000000, 34.000000)" fill="#FAFAFA">
                    <polygon id="Fill-1" points="310.5 129.421308 311.063317 137.359226 319 137.92263 311.063317 138.483389 310.5 146.421308 309.939328 138.483389 302 137.92263 309.939328 137.359226"></polygon>
                    <polygon id="Fill-2" points="357.5 378.421308 358.261137 389.16017 369 389.921308 358.261137 390.680005 357.5 401.421308 356.738863 390.680005 346 389.921308 356.738863 389.16017"></polygon>
                    <polygon id="Fill-3" points="411.998597 614.421308 412.461616 620.958196 419 621.421308 412.461616 621.884419 411.998597 628.421308 411.535578 621.884419 405 621.421308 411.535578 620.958196"></polygon>
                    <polygon id="Fill-4" points="573.50122 587.421308 574.262438 598.15887 585 598.922527 574.262438 599.681305 573.50122 610.421308 572.740002 599.681305 562 598.922527 572.740002 598.15887"></polygon>
                    <polygon id="Fill-5" points="44.0013673 633.421308 44.7287756 643.69399 55 644.418573 44.7287756 645.148625 44.0013673 655.421308 43.2712244 645.148625 33 644.418573 43.2712244 643.69399"></polygon>
                    <polygon id="Fill-6" points="1256.5 119.421308 1257.26114 130.16017 1268 130.921308 1257.26114 131.680005 1256.5 142.421308 1255.73886 131.680005 1245 130.921308 1255.73886 130.16017"></polygon>
                    <polygon id="Fill-7" points="1049.50146 681.421308 1049.73275 684.69012 1053 684.921308 1049.73275 685.152495 1049.50146 688.421308 1049.27018 685.152495 1046 684.921308 1049.27018 684.69012"></polygon>
                    <polygon id="Fill-8" points="444.49875 356.421308 444.863667 361.558972 450 361.921308 444.863667 362.286142 444.49875 367.421308 444.133833 362.286142 439 361.921308 444.133833 361.558972"></polygon>
                    <polygon id="Fill-9" points="1427.73886 12.1601705 1417 12.9213075 1427.73886 13.6824445 1428.49756 24.4213075 1429.26114 13.6824445 1440 12.9213075 1429.26114 12.1601705 1428.49756 1.42130751"></polygon>
                    <polygon id="Fill-10" points="1682.5 659.421308 1683.26114 670.16017 1694 670.921308 1683.26114 671.680005 1682.5 682.421308 1681.73886 671.680005 1671 670.921308 1681.73886 670.16017"></polygon>
                    <polygon id="Fill-11" points="1328.5 306.421308 1329.26114 317.16017 1340 317.921308 1329.26114 318.680005 1328.5 329.421308 1327.73886 318.680005 1317 317.921308 1327.73886 317.16017"></polygon>
                    <polygon id="Fill-12" points="303.49878 689.421308 304.259998 700.15887 315 700.920088 304.259998 701.681305 303.49878 712.421308 302.737562 701.681305 292 700.920088 302.737562 700.15887"></polygon>
                    <polygon id="Fill-13" points="1634.49863 410.421308 1635.06045 416.957957 1643 417.421308 1635.06045 417.884658 1634.49863 424.421308 1633.9368 417.884658 1626 417.421308 1633.9368 416.957957"></polygon>
                    <polygon id="Fill-14" points="1584.5 587.421308 1585.26114 598.16131 1596 598.922527 1585.26114 599.681305 1584.5 610.421308 1583.73886 599.681305 1573 598.922527 1583.73886 598.16131"></polygon>
                    <polygon id="Fill-15" points="84.4987801 78.4213075 85.2599979 89.1588698 96 89.9225274 85.2599979 90.6813054 84.4987801 101.421308 83.7375623 90.6813054 73 89.9225274 83.7375623 89.1588698"></polygon>
                    <polygon id="Fill-16" points="505.50125 47.4213075 505.866167 52.5589722 511 52.9213075 505.866167 53.2861417 505.50125 58.4213075 505.136333 53.2861417 500 52.9213075 505.136333 52.5589722"></polygon>
                    <polygon id="Fill-17" points="927.50125 188.421308 927.866167 193.55764 933 193.920058 927.866167 194.284975 927.50125 199.421308 927.136333 194.284975 922 193.920058 927.136333 193.55764"></polygon>
                    <polygon id="Fill-18" points="1064.49875 19.4213075 1064.86367 24.5589722 1070 24.9213075 1064.86367 25.2861417 1064.49875 30.4213075 1064.13383 25.2861417 1059 24.9213075 1064.13383 24.5589722"></polygon>
                    <polygon id="Fill-19" points="545.5 223.421308 545.864834 228.55764 551 228.920058 545.864834 229.284975 545.5 234.421308 545.135166 229.284975 540 228.920058 545.135166 228.55764"></polygon>
                    <polygon id="Fill-20" points="528.50125 437.421308 528.866167 442.558972 534 442.921308 528.866167 443.286142 528.50125 448.421308 528.136333 443.286142 523 442.921308 528.136333 442.558972"></polygon>
                    <polygon id="Fill-21" points="349.5 494.421308 349.864834 499.56014 355 499.922557 349.864834 500.287474 349.5 505.421308 349.135166 500.287474 344 499.922557 349.135166 499.56014"></polygon>
                    <polygon id="Fill-22" points="103.49875 570.421308 103.863667 575.558972 109 575.921308 103.863667 576.286142 103.49875 581.421308 103.133833 576.286142 98 575.921308 103.133833 575.558972"></polygon>
                    <polygon id="Fill-23" points="5.1376647 610.55764 0 610.920058 5.1376647 611.284975 5.50249886 616.421308 5.86733303 611.284975 11 610.920058 5.86733303 610.55764 5.50249886 605.421308"></polygon>
                    <polygon id="Fill-24" points="233.5 641.421308 233.864834 646.558972 239 646.921308 233.864834 647.286142 233.5 652.421308 233.135166 647.286142 228 646.921308 233.135166 646.558972"></polygon>
                    <polygon id="Fill-25" points="144.49875 599.421308 144.863667 604.56014 150 604.922557 144.863667 605.284975 144.49875 610.421308 144.133833 605.284975 139 604.922557 144.133833 604.56014"></polygon>
                    <polygon id="Fill-26" points="451.50125 537.421308 451.866167 542.55764 457 542.920058 451.866167 543.284975 451.50125 548.421308 451.136333 543.284975 446 542.920058 451.136333 542.55764"></polygon>
                    <polygon id="Fill-27" points="34.5 267.421308 34.8648342 272.558972 40 272.921308 34.8648342 273.286142 34.5 278.421308 34.1351658 273.286142 29 272.921308 34.1351658 272.558972"></polygon>
                    <polygon id="Fill-28" points="1609.50125 274.421308 1609.86367 279.56014 1615 279.922557 1609.86367 280.284975 1609.50125 285.421308 1609.13633 280.284975 1604 279.922557 1609.13633 279.56014"></polygon>
                    <polygon id="Fill-29" points="1469.5 156.421308 1469.86483 161.558972 1475 161.921308 1469.86483 162.286142 1469.5 167.421308 1469.13517 162.286142 1464 161.921308 1469.13517 161.558972"></polygon>
                    <polygon id="Fill-30" points="490.3996 194.825308 489 194.921308 490.3996 195.023308 490.498501 196.421308 490.6004 195.023308 492 194.921308 490.6004 194.825308 490.498501 193.421308"></polygon>
                    <polygon id="Fill-31" points="344.404 63.8223075 343 63.9213075 344.404 64.0233075 344.5 65.4213075 344.602 64.0233075 346 63.9213075 344.602 63.8223075 344.5 62.4213075"></polygon>
                    <polygon id="Fill-32" points="119.401 218.822308 118 218.921308 119.401 219.023308 119.5 220.421308 119.602 219.023308 121 218.921308 119.602 218.822308 119.5 217.421308"></polygon>
                    <polygon id="Fill-33" points="220.401 495.822308 219 495.921308 220.401 496.020308 220.497 497.421308 220.599 496.020308 222 495.921308 220.599 495.822308 220.497 494.421308"></polygon>
                    <polygon id="Fill-34" points="135.401 327.822308 134 327.918308 135.401 328.020308 135.5 329.421308 135.599 328.020308 137 327.918308 135.599 327.822308 135.5 326.421308"></polygon>
                    <polygon id="Fill-35" points="264.3996 155.825308 263 155.921308 264.3996 156.023308 264.498501 157.421308 264.6004 156.023308 266 155.921308 264.6004 155.825308 264.498501 154.421308"></polygon>
                    <polygon id="Fill-36" points="669.401 116.822308 668 116.921308 669.401 117.023308 669.5 118.421308 669.602 117.023308 671 116.921308 669.602 116.822308 669.5 115.421308"></polygon>
                    <polygon id="Fill-37" points="576.401 513.819308 575 513.918308 576.401 514.020308 576.497 515.421308 576.599 514.020308 578 513.918308 576.599 513.819308 576.497 512.421308"></polygon>
                    <polygon id="Fill-38" points="659.498673 423.421308 659.864897 428.560478 665 428.921308 659.864897 429.287444 659.498673 434.421308 659.135103 429.287444 654 428.921308 659.135103 428.560478"></polygon>
                    <polygon id="Fill-39" points="880.5 49.4213075 880.863483 54.5604778 886 54.9213075 880.863483 55.2874435 880.5 60.4213075 880.133864 55.2874435 875 54.9213075 880.133864 54.5604778"></polygon>
                    <polygon id="Fill-40" points="750.5 12.4213075 751.261137 23.1601705 762 23.9213075 751.261137 24.680005 750.5 35.4213075 749.738863 24.680005 739 23.9213075 749.738863 23.1601705"></polygon>
                    <polygon id="Fill-41" points="1766.4987 352.421308 1767.26028 363.16103 1778 363.920012 1767.26028 364.681585 1766.4987 375.421308 1765.73972 364.681585 1755 363.920012 1765.73972 363.16103"></polygon>
                    <polygon id="Fill-42" points="1857.9986 93.4213075 1858.46162 99.959692 1865 100.422711 1858.46162 100.885729 1857.9986 107.421308 1857.53838 100.885729 1851 100.422711 1857.53838 99.959692"></polygon>
                    <polygon id="Fill-43" points="850.998597 411.421308 851.461616 417.959692 858 418.422711 851.461616 418.885729 850.998597 425.421308 850.535578 418.885729 844 418.422711 850.535578 417.959692"></polygon>
                    <polygon id="Fill-44" points="857.001403 616.421308 857.461616 622.956886 864 623.419904 857.461616 623.882923 857.001403 630.421308 856.538384 623.882923 850 623.419904 856.538384 622.956886"></polygon>
                    <polygon id="Fill-45" points="757.998597 627.421308 758.461616 633.959692 765 634.419904 758.461616 634.882923 757.998597 641.421308 757.535578 634.882923 751 634.419904 757.535578 633.959692"></polygon>
                    <polygon id="Fill-46" points="1001 720.421308 1001.46311 726.959692 1008 727.419904 1001.46311 727.882923 1001 734.421308 1000.53689 727.882923 994 727.419904 1000.53689 726.959692"></polygon>
                    <polygon id="Fill-47" points="1048 390.421308 1048.26667 394.154641 1052 394.421308 1048.26667 394.685308 1048 398.421308 1047.736 394.685308 1044 394.421308 1047.736 394.154641"></polygon>
                    <polygon id="Fill-48" points="1108 246.421308 1108.26667 250.157308 1112 250.421308 1108.26667 250.687974 1108 254.421308 1107.736 250.687974 1104 250.421308 1107.736 250.157308"></polygon>
                    <polygon id="Fill-49" points="1477 682.421308 1477.264 686.157308 1481 686.421308 1477.264 686.687974 1477 690.421308 1476.73333 686.687974 1473 686.421308 1476.73333 686.157308"></polygon>
                    <polygon id="Fill-50" points="1181 630.421308 1181.264 634.157308 1185 634.421308 1181.264 634.687974 1181 638.421308 1180.73333 634.687974 1177 634.421308 1180.73333 634.157308"></polygon>
                    <polygon id="Fill-51" points="1410 657.421308 1410.264 661.157308 1414 661.421308 1410.264 661.687974 1410 665.421308 1409.73333 661.687974 1406 661.421308 1409.73333 661.157308"></polygon>
                    <polygon id="Fill-52" points="755 216.421308 755.266667 220.154641 759 220.421308 755.266667 220.685308 755 224.421308 754.733333 220.685308 751 220.421308 754.733333 220.154641"></polygon>
                    <polygon id="Fill-53" points="606 142.421308 606.266667 146.157308 610 146.421308 606.266667 146.687974 606 150.421308 605.736 146.687974 602 146.421308 605.736 146.157308"></polygon>
                    <polygon id="Fill-54" points="1038 128.421308 1038.26667 132.154641 1042 132.421308 1038.26667 132.687974 1038 136.421308 1037.736 132.687974 1034 132.421308 1037.736 132.154641"></polygon>
                    <polygon id="Fill-55" points="219 42.4213075 219.266667 46.1546408 223 46.4213075 219.266667 46.6853075 219 50.4213075 218.736 46.6853075 215 46.4213075 218.736 46.1546408"></polygon>
                    <polygon id="Fill-56" points="1550 34.4213075 1550.26667 38.1573075 1554 38.4213075 1550.26667 38.6879742 1550 42.4213075 1549.736 38.6879742 1546 38.4213075 1549.736 38.1573075"></polygon>
                    <polygon id="Fill-57" points="1545 151.421308 1545.26667 155.157308 1549 155.421308 1545.26667 155.687974 1545 159.421308 1544.736 155.687974 1541 155.421308 1544.736 155.157308"></polygon>
                    <polygon id="Fill-58" points="1810 34.4213075 1810.26667 38.1573075 1814 38.4213075 1810.26667 38.6879742 1810 42.4213075 1809.736 38.6879742 1806 38.4213075 1809.736 38.1573075"></polygon>
                    <polygon id="Fill-59" points="1779 242.421308 1779.26667 246.157308 1783 246.421308 1779.26667 246.687974 1779 250.421308 1778.736 246.687974 1775 246.421308 1778.736 246.157308"></polygon>
                    <polygon id="Fill-60" points="1517 469.421308 1517.26667 473.157308 1521 473.421308 1517.26667 473.687974 1517 477.421308 1516.736 473.687974 1513 473.421308 1516.736 473.157308"></polygon>
                    <polygon id="Fill-61" points="1316 46.4213075 1316.264 50.1573075 1320 50.4213075 1316.264 50.6879742 1316 54.4213075 1315.73333 50.6879742 1312 50.4213075 1315.73333 50.1573075"></polygon>
                    <polygon id="Fill-62" points="1232.99867 0.421307506 1232.73725 4.15730751 1229 4.42130751 1232.73725 4.68530751 1232.99867 8.42130751 1233.26542 4.68530751 1237 4.42130751 1233.26542 4.15730751"></polygon>
                    <polygon id="Fill-63" points="1209 464.421308 1209.26667 468.154641 1213 468.421308 1209.26667 468.687974 1209 472.421308 1208.736 468.687974 1205 468.421308 1208.736 468.154641"></polygon>
                    <polygon id="Fill-64" points="1414 304.421308 1414.264 308.157308 1418 308.421308 1414.264 308.687974 1414 312.421308 1413.73333 308.687974 1410 308.421308 1413.73333 308.157308"></polygon>
                    <polygon id="Fill-65" points="1362 541.421308 1362.26667 545.157308 1366 545.421308 1362.26667 545.687974 1362 549.421308 1361.736 545.687974 1358 545.421308 1361.736 545.157308"></polygon>
                    <polygon id="Fill-66" points="695 663.421308 695.264 667.154641 699 667.421308 695.264 667.685308 695 671.421308 694.733333 667.685308 691 667.421308 694.733333 667.154641"></polygon>
                    <polygon id="Fill-67" points="602 678.421308 602.266667 682.154641 606 682.421308 602.266667 682.685308 602 686.421308 601.736 682.685308 598 682.421308 601.736 682.154641"></polygon>
                    <polygon id="Fill-68" points="1788 575.421308 1788.26667 579.154641 1792 579.421308 1788.26667 579.685308 1788 583.421308 1787.736 579.685308 1784 579.421308 1787.736 579.154641"></polygon>
                    <polygon id="Fill-69" points="1874.73725 550.158553 1871 550.422641 1874.73725 550.686729 1875.00133 554.421308 1875.26542 550.686729 1879 550.422641 1875.26542 550.158553 1875.00133 546.421308"></polygon>
                    <polygon id="Fill-70" points="1756 691.421308 1756.264 695.157308 1760 695.421308 1756.264 695.687974 1756 699.421308 1755.73333 695.687974 1752 695.421308 1755.73333 695.157308"></polygon>
                    <polygon id="Fill-71" points="1852 449.421308 1852.26667 453.154641 1856 453.421308 1852.26667 453.685308 1852 457.421308 1851.73333 453.685308 1848 453.421308 1851.73333 453.154641"></polygon>
                    <polygon id="Fill-72" points="1858 309.421308 1858.26667 313.157308 1862 313.421308 1858.26667 313.687974 1858 317.421308 1857.736 313.687974 1854 313.421308 1857.736 313.157308"></polygon>
                    <polygon id="Fill-73" points="1351 725.421308 1351.26667 729.157308 1355 729.421308 1351.26667 729.687974 1351 733.421308 1350.736 729.687974 1347 729.421308 1350.736 729.157308"></polygon>
                    <polygon id="Fill-74" points="1430 442.421308 1430.26667 446.157308 1434 446.421308 1430.26667 446.687974 1430 450.421308 1429.736 446.687974 1426 446.421308 1429.736 446.157308"></polygon>
                    <polygon id="Fill-75" points="1300 611.421308 1300.26667 615.157308 1304 615.421308 1300.26667 615.687974 1300 619.421308 1299.736 615.687974 1296 615.421308 1299.736 615.157308"></polygon>
                    <polygon id="Fill-76" points="394 686.421308 394.264 690.157308 398 690.421308 394.264 690.687974 394 694.421308 393.733333 690.687974 390 690.421308 393.733333 690.157308"></polygon>
                    <polygon id="Fill-77" points="155 407.421308 155.264 411.157308 159 411.421308 155.264 411.687974 155 415.421308 154.733333 411.687974 151 411.421308 154.733333 411.157308"></polygon>
                    <polygon id="Fill-78" points="215 197.421308 215.266667 201.157308 219 201.421308 215.266667 201.687974 215 205.421308 214.736 201.687974 211 201.421308 214.736 201.157308"></polygon>
                    <polygon id="Fill-79" points="11.0013338 0.421307506 10.7372457 4.15730751 7 4.42130751 10.7372457 4.68530751 11.0013338 8.42130751 11.2654218 4.68530751 15 4.42130751 11.2654218 4.15730751"></polygon>
                    <polygon id="Fill-80" points="266 537.421308 266.266667 541.157308 270 541.421308 266.266667 541.687974 266 545.421308 265.736 541.687974 262 541.421308 265.736 541.157308"></polygon>
                    <polygon id="Fill-81" points="1862.73725 736.157308 1859 736.421308 1862.73725 736.687974 1862.99867 740.421308 1863.26542 736.687974 1867 736.421308 1863.26542 736.157308 1862.99867 732.421308"></polygon>
                    <polygon id="Fill-82" points="1830 657.421308 1830.264 661.157308 1834 661.421308 1830.264 661.687974 1830 665.421308 1829.73333 661.687974 1826 661.421308 1829.73333 661.157308"></polygon>
                    <polygon id="Fill-83" points="1876.4145 625.835808 1875.2055 625.922808 1876.4145 626.006808 1876.4985 627.215808 1876.5885 626.006808 1877.7945 625.922808 1876.5885 625.835808 1876.4985 624.626808"></polygon>
                    <polygon id="Fill-84" points="1713.4145 539.835808 1712.2055 539.919808 1713.4145 540.006808 1713.5015 541.215808 1713.5855 540.006808 1714.7945 539.919808 1713.5855 539.835808 1713.5015 538.626808"></polygon>
                    <polygon id="Fill-85" points="1300.413 670.834308 1299.204 670.921308 1300.413 671.008308 1300.497 672.217308 1300.587 671.008308 1301.796 670.921308 1300.587 670.834308 1300.497 669.625308"></polygon>
                    <polygon id="Fill-86" points="83.9986493 419.421308 85.3223475 438.097699 104 439.421308 85.3223475 440.744916 83.9986493 459.421308 82.6776525 440.744916 64 439.421308 82.6776525 438.097699"></polygon>
                    <g id="Group-109" transform="translate(233.000000, 57.421308)">
                        <path d="M1129.00358,391.990151 C1129.00358,395.205946 1126.40064,397.813348 1123.19035,397.813348 C1119.97743,397.813348 1117.37449,395.205946 1117.37449,391.990151 C1117.37449,388.771722 1119.97743,386.166955 1123.19035,386.166955 C1126.40064,386.166955 1129.00358,388.771722 1129.00358,391.990151" id="Fill-87"></path>
                        <path d="M12.0380151,260.912918 C12.0380151,264.131347 9.43507797,266.736115 6.22215957,266.736115 C3.0118704,266.736115 0.408933233,264.131347 0.408933233,260.912918 C0.408933233,257.697123 3.0118704,255.089722 6.22215957,255.089722 C9.43507797,255.089722 12.0380151,257.697123 12.0380151,260.912918" id="Fill-89"></path>
                        <path d="M1498.42819,422.355317 C1498.42819,425.571112 1495.82526,428.178513 1492.61497,428.178513 C1489.40205,428.178513 1486.80174,425.571112 1486.80174,422.355317 C1486.80174,419.136888 1489.40205,416.53212 1492.61497,416.53212 C1495.82526,416.53212 1498.42819,419.136888 1498.42819,422.355317" id="Fill-91"></path>
                        <path d="M160.99517,96.1704448 C160.99517,97.7796592 159.693701,99.0807262 158.089871,99.0807262 C156.480783,99.0807262 155.179314,97.7796592 155.179314,96.1704448 C155.179314,94.563864 156.480783,93.2601633 158.089871,93.2601633 C159.693701,93.2601633 160.99517,94.563864 160.99517,96.1704448" id="Fill-93"></path>
                        <path d="M1212.16321,511.832908 C1212.16321,512.55982 1211.57426,513.149777 1210.8486,513.149777 C1210.12293,513.149777 1209.53398,512.55982 1209.53398,511.832908 C1209.53398,511.105996 1210.12293,510.516038 1210.8486,510.516038 C1211.57426,510.516038 1212.16321,511.105996 1212.16321,511.832908" id="Fill-95"></path>
                        <path d="M1000.51024,485.59086 C1000.51024,486.317772 999.921292,486.90773 999.195625,486.90773 C998.469958,486.90773 997.88101,486.317772 997.88101,485.59086 C997.88101,484.866582 998.469958,484.273991 999.195625,484.273991 C999.921292,484.273991 1000.51024,484.866582 1000.51024,485.59086" id="Fill-97"></path>
                        <path d="M1232.89916,284.724551 C1232.89916,286.181009 1231.72389,287.35829 1230.26993,287.35829 C1228.81859,287.35829 1227.6407,286.181009 1227.6407,284.724551 C1227.6407,283.270727 1228.81859,282.090812 1230.26993,282.090812 C1231.72389,282.090812 1232.89916,283.270727 1232.89916,284.724551" id="Fill-99"></path>
                        <path d="M1465.44477,3.35933055 C1465.44477,4.81578814 1464.26951,5.99306942 1462.81554,5.99306942 C1461.36421,5.99306942 1460.18631,4.81578814 1460.18631,3.35933055 C1460.18631,1.90550669 1461.36421,0.725591675 1462.81554,0.725591675 C1464.26951,0.725591675 1465.44477,1.90550669 1465.44477,3.35933055" id="Fill-101"></path>
                        <path d="M323.763667,274.534089 C323.763667,275.987913 322.588401,277.167828 321.134437,277.167828 C319.683103,277.167828 318.505208,275.987913 318.505208,274.534089 C318.505208,273.077631 319.683103,271.90035 321.134437,271.90035 C322.588401,271.90035 323.763667,273.077631 323.763667,274.534089" id="Fill-103"></path>
                        <path d="M1076.68086,156.844151 C1076.68086,158.300608 1075.50559,159.477889 1074.05163,159.477889 C1072.60029,159.477889 1071.4224,158.300608 1071.4224,156.844151 C1071.4224,155.390327 1072.60029,154.210412 1074.05163,154.210412 C1075.50559,154.210412 1076.68086,155.390327 1076.68086,156.844151" id="Fill-105"></path>
                        <path d="M701.702518,632.951447 C701.702518,634.407905 700.527253,635.585186 699.073289,635.585186 C697.621954,635.585186 696.44406,634.407905 696.44406,632.951447 C696.44406,631.497623 697.621954,630.317708 699.073289,630.317708 C700.527253,630.317708 701.702518,631.497623 701.702518,632.951447" id="Fill-107"></path>
                    </g>
                </g>
            </g>
        </g>
    </g>
</svg>